<?xml version="1.0" encoding="UTF-8"?>
<!DOCTYPE svg PUBLIC "-//W3C//DTD SVG 1.1//EN" "http://www.w3.org/Graphics/SVG/1.1/DTD/svg11.dtd">
<!-- Creator: CorelDRAW 2018 (64-Bit Evaluation Version) -->
<svg xmlns="http://www.w3.org/2000/svg" xml:space="preserve" width="23.9081mm" height="14.195mm" version="1.1" style="shape-rendering:geometricPrecision; text-rendering:geometricPrecision; image-rendering:optimizeQuality; fill-rule:evenodd; clip-rule:evenodd"
viewBox="0 0 63.81 37.88"
 xmlns:xlink="http://www.w3.org/1999/xlink">
 <defs>
  <style type="text/css">
   <![CDATA[
    .fil0 {fill:white}
   ]]>
  </style>
 </defs>
 <g id="Layer_x0020_1">
  <metadata id="CorelCorpID_0Corel-Layer"/>
  <g id="_1960041213088">
   <g>
    <path class="fil0" d="M29.08 11.94c0.34,1.83 1.19,3.53 2.45,4.9 -1.05,1.37 -2.59,2.29 -4.29,2.58l-7.48 0 0 -4.62 5.82 0c0,0 1.83,0 3.51,-2.86l0 0zm0 0l0 0 0 0z"/>
   </g>
   <path class="fil0" d="M44.05 0.07l0 4.87 -6.21 0c0,0 -1.65,0.05 -3.08,2.73 -0.28,-1.59 -0.98,-3.07 -2.04,-4.28 -0.1,-0.12 -0.21,-0.24 -0.32,-0.36 0.67,-1.05 2.18,-2.77 4.91,-2.96l6.74 -0z"/>
   <g>
    <path class="fil0" d="M24.61 4.93l0 4.82 -4.88 0 0 -9.75c2.14,0.1 4.29,0.1 6.4,0.35 2.48,0.29 4.51,1.55 6.13,3.44 1.43,1.66 2.09,3.61 2.03,5.8 -0.05,2 0.71,3.56 2.5,4.49 0.65,0.34 1.28,0.47 2.28,0.51l0 -4.74 4.97 0c0.01,0.21 0.01,0.43 0,0.64 0.01,2.75 -0.01,5.5 0.01,8.26 0,0.27 0,0.75 0,0.75 0,0 -0.43,0.01 -0.72,0 -1.41,0.01 -3.49,-0.01 -5.22,-0.15 -4.72,-0.39 -8.17,-3.88 -8.6,-8.58 -0.12,-1.25 -0.18,-2.52 -0.88,-3.64 -0.91,-1.44 -2.19,-2.17 -4.03,-2.19l-0 0zm0 0l0 0 0 0z"/>
   </g>
   <g>
    <path class="fil0" d="M1.31 37.88c-0.18,0 -0.36,-0.03 -0.53,-0.09 -0.15,-0.06 -0.3,-0.14 -0.42,-0.25 -0.12,-0.11 -0.21,-0.25 -0.27,-0.4 -0.07,-0.17 -0.1,-0.35 -0.1,-0.53 -0,-0.18 0.03,-0.36 0.09,-0.53 0.06,-0.15 0.14,-0.29 0.26,-0.41 0.11,-0.11 0.25,-0.2 0.4,-0.26 0.17,-0.06 0.35,-0.09 0.52,-0.09 0.31,-0.01 0.61,0.09 0.84,0.29 -0.01,0.01 -0.02,0.03 -0.03,0.04l-0.03 0.05c-0.01,0.01 -0.01,0.02 -0.02,0.02 -0.01,0.01 -0.02,0.01 -0.03,0.01 -0.01,-0 -0.03,-0.01 -0.04,-0.01 -0.1,-0.07 -0.21,-0.12 -0.32,-0.16 -0.12,-0.04 -0.25,-0.06 -0.38,-0.05 -0.14,-0 -0.29,0.02 -0.42,0.08 -0.12,0.05 -0.23,0.13 -0.32,0.22 -0.09,0.1 -0.16,0.22 -0.2,0.35 -0.05,0.15 -0.07,0.3 -0.07,0.45 -0,0.16 0.02,0.32 0.07,0.47 0.04,0.13 0.12,0.25 0.21,0.35 0.09,0.1 0.21,0.17 0.34,0.22 0.14,0.05 0.29,0.08 0.44,0.08 0.11,0 0.23,-0.02 0.34,-0.05 0.11,-0.03 0.21,-0.08 0.31,-0.13l0 -0.67 -0.43 0c-0.03,0 -0.05,-0.02 -0.05,-0.05l0 -0.1 0.69 0 0 0.92c-0.25,0.17 -0.55,0.26 -0.85,0.25l-0 0zm0 0l0 0 0 0z"/>
   </g>
   <path class="fil0" d="M5.91 37.85l0 -2.5 0.7 0c0.31,0 0.52,0.06 0.66,0.18 0.07,0.06 0.13,0.13 0.16,0.22 0.04,0.08 0.05,0.18 0.05,0.27 0,0.09 -0.02,0.18 -0.06,0.27 -0.04,0.08 -0.09,0.16 -0.15,0.23 -0.06,0.07 -0.14,0.12 -0.22,0.16 -0.08,0.04 -0.17,0.06 -0.26,0.07 0.02,0.02 0.03,0.03 0.05,0.04 0.05,0.04 0.1,0.09 0.14,0.15l0.68 0.93 -0.2 0c-0.02,0 -0.04,-0 -0.05,-0.01 -0.02,-0.01 -0.03,-0.02 -0.04,-0.04l-0.73 -0.99c-0.01,-0.02 -0.04,-0.04 -0.06,-0.04 -0.03,-0.01 -0.07,-0.01 -0.1,-0.01l-0.33 0 0 1.09 -0.23 0zm0.23 -2.34l0 1.12 0.43 0c0.18,0.01 0.37,-0.04 0.51,-0.16 0.06,-0.05 0.1,-0.12 0.13,-0.19 0.03,-0.07 0.04,-0.15 0.04,-0.23 0,-0.36 -0.22,-0.53 -0.67,-0.53l-0.44 -0.01z"/>
   <g>
    <path class="fil0" d="M12.23 37.88c-0.17,0 -0.35,-0.03 -0.51,-0.1 -0.15,-0.06 -0.28,-0.15 -0.39,-0.27 -0.11,-0.12 -0.19,-0.26 -0.24,-0.41 -0.11,-0.33 -0.11,-0.69 0,-1.02 0.05,-0.15 0.14,-0.29 0.24,-0.41 0.11,-0.12 0.24,-0.21 0.39,-0.27 0.33,-0.13 0.69,-0.13 1.02,0 0.15,0.06 0.28,0.15 0.39,0.27 0.11,0.12 0.19,0.25 0.24,0.4 0.11,0.33 0.11,0.69 0,1.03 -0.05,0.15 -0.13,0.29 -0.24,0.4 -0.11,0.12 -0.24,0.21 -0.39,0.27 -0.16,0.07 -0.33,0.1 -0.51,0.1l0 0zm-0 -0.19c0.14,0 0.28,-0.02 0.41,-0.08 0.12,-0.05 0.22,-0.12 0.31,-0.22 0.09,-0.1 0.15,-0.22 0.2,-0.34 0.09,-0.3 0.09,-0.62 0,-0.92 -0.04,-0.13 -0.11,-0.24 -0.2,-0.35 -0.08,-0.1 -0.19,-0.17 -0.31,-0.22 -0.26,-0.1 -0.55,-0.1 -0.81,0 -0.12,0.05 -0.22,0.12 -0.31,0.22 -0.09,0.1 -0.16,0.22 -0.2,0.35 -0.09,0.3 -0.09,0.62 0,0.92 0.04,0.13 0.11,0.24 0.2,0.34 0.08,0.09 0.19,0.17 0.31,0.22 0.13,0.05 0.26,0.08 0.4,0.08l-0 0zm0 0l0 0 0 0z"/>
   </g>
   <g>
    <path class="fil0" d="M18.07 37.88c-0.14,0 -0.28,-0.02 -0.41,-0.08 -0.12,-0.05 -0.22,-0.12 -0.31,-0.21 -0.09,-0.09 -0.15,-0.2 -0.19,-0.32 -0.05,-0.13 -0.07,-0.26 -0.07,-0.4l0 -1.54 0.23 0 0 1.53c-0,0.11 0.02,0.22 0.05,0.33 0.03,0.09 0.08,0.18 0.15,0.26 0.06,0.07 0.14,0.13 0.23,0.17 0.1,0.04 0.21,0.06 0.31,0.06 0.11,0 0.21,-0.02 0.31,-0.06 0.09,-0.04 0.17,-0.09 0.23,-0.17 0.06,-0.08 0.11,-0.16 0.14,-0.26 0.03,-0.11 0.05,-0.22 0.05,-0.33l0 -1.53 0.23 0 0 1.54c0,0.14 -0.02,0.27 -0.07,0.4 -0.04,0.12 -0.11,0.23 -0.19,0.32 -0.09,0.09 -0.19,0.16 -0.31,0.21 -0.13,0.05 -0.27,0.08 -0.41,0.08l0 0zm0 0l0 0 0 0z"/>
   </g>
   <path class="fil0" d="M23.04 37.85l-0.23 0 0 -2.5 0.71 0c0.14,-0 0.28,0.01 0.41,0.05 0.1,0.03 0.2,0.08 0.28,0.15 0.07,0.06 0.13,0.14 0.17,0.24 0.04,0.1 0.06,0.2 0.05,0.31 0,0.11 -0.02,0.21 -0.06,0.31 -0.04,0.09 -0.1,0.18 -0.17,0.24 -0.08,0.07 -0.18,0.13 -0.29,0.16 -0.13,0.04 -0.26,0.06 -0.39,0.06l-0.48 0 0 0.98zm0.48 -1.14c0.09,0.01 0.18,-0.01 0.27,-0.04 0.09,-0.03 0.17,-0.08 0.23,-0.14 0.06,-0.06 0.1,-0.13 0.13,-0.2 0.03,-0.08 0.04,-0.16 0.04,-0.24 0,-0.08 -0.01,-0.16 -0.04,-0.23 -0.03,-0.07 -0.07,-0.14 -0.13,-0.2 -0.14,-0.12 -0.33,-0.17 -0.51,-0.16l-0.48 0 0 1.2 0.48 0z"/>
   <g>
    <path class="fil0" d="M7.48 27.65c0.01,0.59 -0.1,1.18 -0.31,1.73 -0.19,0.5 -0.49,0.96 -0.87,1.35 -0.38,0.38 -0.84,0.68 -1.34,0.87 -0.56,0.21 -1.15,0.32 -1.74,0.31l-3.22 0 0 -8.52 3.22 0c0.6,-0.01 1.19,0.09 1.74,0.31 0.5,0.19 0.96,0.49 1.34,0.87 0.38,0.38 0.68,0.84 0.87,1.35 0.21,0.55 0.31,1.14 0.31,1.73l0 0zm-1.42 -0c0.01,-0.45 -0.06,-0.89 -0.2,-1.32 -0.12,-0.37 -0.31,-0.7 -0.57,-0.99 -0.25,-0.27 -0.56,-0.48 -0.9,-0.62 -0.38,-0.15 -0.78,-0.22 -1.18,-0.22l-1.83 0 0 6.29 1.83 0c0.4,0.01 0.81,-0.07 1.18,-0.21 0.34,-0.14 0.65,-0.35 0.9,-0.62 0.26,-0.29 0.45,-0.62 0.57,-0.99 0.14,-0.43 0.2,-0.88 0.2,-1.33l0 0zm0 0l0 0 0 0z"/>
   </g>
   <polygon class="fil0" points="14.56,30.79 14.55,31.91 9.24,31.91 9.24,23.39 14.55,23.39 14.55,24.5 10.63,24.5 10.63,27.07 13.77,27.07 13.77,28.16 10.63,28.16 10.63,30.79 "/>
   <path class="fil0" d="M23.43 23.39l-3.46 8.52 -1.25 0 -3.46 -8.52 1.11 0c0.11,-0.01 0.21,0.03 0.3,0.09 0.07,0.06 0.13,0.14 0.17,0.23l2.2 5.56c0.13,0.35 0.24,0.71 0.33,1.08 0.04,-0.2 0.09,-0.39 0.14,-0.57 0.05,-0.17 0.1,-0.34 0.16,-0.5l2.19 -5.56c0.04,-0.09 0.09,-0.16 0.17,-0.22 0.08,-0.07 0.19,-0.11 0.3,-0.1l1.11 0z"/>
   <polygon class="fil0" points="30.52,24.54 27.86,24.54 27.86,31.91 26.49,31.91 26.49,24.54 23.82,24.54 23.82,23.39 30.52,23.39 "/>
   <path class="fil0" d="M38.43 31.91l-1.24 0c-0.11,0.01 -0.21,-0.02 -0.31,-0.07 -0.09,-0.05 -0.17,-0.13 -0.23,-0.22l-1.99 -2.87c-0.06,-0.09 -0.13,-0.16 -0.22,-0.21 -0.11,-0.05 -0.23,-0.07 -0.35,-0.07l-0.76 0 0 3.43 -1.39 0 0 -8.52 2.51 0c0.49,-0.01 0.98,0.05 1.45,0.17 0.36,0.09 0.7,0.26 1,0.49 0.25,0.2 0.45,0.46 0.58,0.76 0.23,0.58 0.25,1.22 0.05,1.82 -0.09,0.25 -0.22,0.49 -0.39,0.7 -0.17,0.21 -0.38,0.4 -0.62,0.54 -0.26,0.16 -0.54,0.28 -0.83,0.36 0.18,0.11 0.33,0.26 0.44,0.43l2.3 3.25zm-4.01 -4.44c0.28,0.01 0.56,-0.03 0.83,-0.12 0.22,-0.07 0.42,-0.18 0.59,-0.32 0.16,-0.13 0.28,-0.3 0.35,-0.49 0.08,-0.2 0.12,-0.42 0.12,-0.64 0,-0.46 -0.15,-0.82 -0.46,-1.07 -0.31,-0.25 -0.77,-0.37 -1.4,-0.37l-1.12 0 0 3 1.09 0z"/>
   <path class="fil0" d="M46.83 31.91l-1.07 0c-0.11,0.01 -0.21,-0.03 -0.3,-0.09 -0.08,-0.06 -0.13,-0.14 -0.17,-0.23l-0.71 -1.88 -3.67 0 -0.71 1.88c-0.04,0.09 -0.09,0.16 -0.17,0.22 -0.08,0.07 -0.19,0.11 -0.3,0.1l-1.07 0 3.38 -8.52 1.4 0 3.39 8.52zm-2.62 -3.2l-1.17 -3.11c-0.11,-0.3 -0.21,-0.61 -0.29,-0.92 -0.04,0.19 -0.09,0.36 -0.14,0.51 -0.05,0.16 -0.1,0.29 -0.14,0.41l-1.18 3.11 2.92 0z"/>
   <g>
    <path class="fil0" d="M53.74 30.01c0.04,-0 0.07,0.01 0.11,0.02 0.03,0.02 0.06,0.04 0.09,0.07l0.55 0.6c-0.35,0.42 -0.78,0.75 -1.28,0.97 -0.57,0.24 -1.19,0.36 -1.81,0.34 -0.58,0.01 -1.15,-0.1 -1.69,-0.32 -0.49,-0.2 -0.93,-0.51 -1.29,-0.9 -0.36,-0.4 -0.64,-0.87 -0.82,-1.38 -0.2,-0.57 -0.29,-1.16 -0.29,-1.76 -0.01,-0.6 0.1,-1.2 0.31,-1.76 0.19,-0.51 0.48,-0.98 0.86,-1.38 0.37,-0.39 0.83,-0.69 1.33,-0.9 0.54,-0.22 1.12,-0.33 1.7,-0.32 0.56,-0.01 1.11,0.09 1.63,0.3 0.45,0.19 0.87,0.46 1.22,0.8l-0.46 0.65c-0.03,0.04 -0.07,0.08 -0.11,0.11 -0.05,0.03 -0.12,0.05 -0.18,0.05 -0.1,-0.01 -0.19,-0.05 -0.27,-0.11 -0.12,-0.09 -0.25,-0.17 -0.38,-0.24 -0.45,-0.25 -0.95,-0.37 -1.46,-0.35 -0.38,-0.01 -0.77,0.07 -1.12,0.21 -0.33,0.14 -0.63,0.35 -0.88,0.62 -0.25,0.29 -0.45,0.63 -0.57,0.99 -0.14,0.43 -0.21,0.88 -0.2,1.33 -0.01,0.46 0.06,0.91 0.21,1.34 0.13,0.37 0.33,0.71 0.59,0.99 0.24,0.27 0.54,0.48 0.88,0.62 0.34,0.14 0.71,0.22 1.08,0.21 0.21,0 0.43,-0.01 0.64,-0.04 0.18,-0.02 0.35,-0.06 0.52,-0.12 0.16,-0.06 0.31,-0.13 0.45,-0.22 0.15,-0.09 0.29,-0.2 0.42,-0.32 0.06,-0.06 0.15,-0.1 0.24,-0.1l0 -0.01zm0 0l0 0 0 0z"/>
   </g>
   <g>
    <path class="fil0" d="M63.76 27.65c0.01,0.6 -0.1,1.19 -0.31,1.75 -0.19,0.51 -0.49,0.98 -0.87,1.38 -0.38,0.39 -0.84,0.7 -1.34,0.9 -1.12,0.43 -2.36,0.43 -3.48,0 -0.51,-0.2 -0.97,-0.51 -1.35,-0.91 -0.38,-0.39 -0.68,-0.86 -0.87,-1.37 -0.41,-1.13 -0.41,-2.36 0,-3.49 0.19,-0.51 0.49,-0.98 0.87,-1.38 0.38,-0.39 0.84,-0.7 1.35,-0.91 1.12,-0.43 2.36,-0.43 3.48,0 0.51,0.21 0.96,0.51 1.34,0.91 0.38,0.4 0.67,0.86 0.87,1.38 0.21,0.56 0.31,1.15 0.31,1.75zm-1.41 0c0.01,-0.45 -0.06,-0.89 -0.2,-1.32 -0.12,-0.37 -0.31,-0.71 -0.57,-0.99 -0.25,-0.27 -0.56,-0.49 -0.9,-0.63 -0.76,-0.29 -1.6,-0.29 -2.36,0 -0.34,0.14 -0.65,0.35 -0.9,0.63 -0.26,0.29 -0.45,0.63 -0.57,0.99 -0.27,0.86 -0.27,1.78 0,2.65 0.12,0.37 0.32,0.7 0.57,0.99 0.25,0.27 0.56,0.48 0.9,0.62 0.76,0.29 1.6,0.29 2.36,0 0.34,-0.14 0.65,-0.35 0.9,-0.62 0.26,-0.29 0.45,-0.63 0.57,-0.99 0.14,-0.43 0.21,-0.88 0.2,-1.33l0 -0zm0 0l0 0 0 0z"/>
   </g>
   <polygon class="fil0" points="63.81,36.98 25.81,36.98 25.81,37.18 63.81,37.18 "/>
  </g>
 </g>
</svg>
