<?xml version="1.0" encoding="UTF-8"?>
<!DOCTYPE svg PUBLIC "-//W3C//DTD SVG 1.1//EN" "http://www.w3.org/Graphics/SVG/1.1/DTD/svg11.dtd">
<!-- Creator: CorelDRAW 2018 (64-Bit Evaluation Version) -->
<svg xmlns="http://www.w3.org/2000/svg" xml:space="preserve" width="79.6815mm" height="16.934mm" version="1.1" style="shape-rendering:geometricPrecision; text-rendering:geometricPrecision; image-rendering:optimizeQuality; fill-rule:evenodd; clip-rule:evenodd"
viewBox="0 0 1191.54 253.23"
 xmlns:xlink="http://www.w3.org/1999/xlink">
 <defs>
  <style type="text/css">
   <![CDATA[
    .fil0 {fill:white}
   ]]>
  </style>
 </defs>
 <g id="Layer_x0020_1">
  <metadata id="CorelCorpID_0Corel-Layer"/>
  <g id="_2336912689696">
   <path class="fil0" d="M-0 126.62l63.3 0 0 -62.04c69.75,0 59.97,71.47 67.62,98.24 4.09,14.31 9.62,25.35 16.94,36.23 13.55,20.12 34.42,37.14 59.6,45.49 24.04,7.97 62.23,8.64 92.73,8.68l11.03 0 1.5 0 0.13 0c2.81,-0.03 3.66,-0.93 3.66,-3.8l0 -119.01c0,-2.92 -0.88,-3.8 -3.8,-3.8l-62.04 0 0 62.04c-31.1,0 -53.76,-20.27 -59.45,-45.64 -4.12,-18.41 4.92,-47.85 -21.06,-85.29 -41.59,-59.91 -100.06,-57.72 -170.17,-57.72l0 126.61z"/>
   <path class="fil0" d="M164.59 39.26c5.64,8.42 9.15,8.32 18.58,25.74 5.59,10.33 8.89,21.26 11.81,33.77 2.77,-2.03 5.48,-7.7 7.82,-11.17 8.64,-12.79 19.68,-23.16 37.73,-23.05l59.54 0.03c21.52,0.07 16.46,10.04 16.46,-64.57l-84.83 0c-30.37,0 -56.71,19.61 -67.1,39.25z"/>
   <path class="fil0" d="M75.97 191.19l-75.97 0 0 60.77 94.96 0c21.02,0 50.95,-20.4 58.24,-34.18 -5.06,-7.55 -10.09,-10.02 -19.41,-27.43 -5.47,-10.22 -9.63,-24.68 -12.24,-35.87l-4.31 5.82c-8.51,12.84 -25.15,30.9 -41.27,30.9z"/>
   <path class="fil0" d="M410.21 127.89l-27.85 0 0 -79.76 26.59 0c32.9,0 41.33,43.44 24.64,67.68 -4.03,5.86 -14.11,12.08 -23.37,12.08zm-46.85 15.19c22.34,0 51.39,2.82 68.39,-5.05 37.53,-17.37 36.15,-73.61 10.87,-93.21 -21.61,-16.76 -47.71,-13.16 -79.26,-13.16l0 111.42z"/>
   <path class="fil0" d="M1098.97 88.64c0,-34.32 26.69,-47.5 50.53,-39.14 33.82,11.86 32.09,80.75 -14.76,78.97 -11.95,-0.45 -18.99,-3.5 -26.16,-11.47 -5.46,-6.07 -9.61,-17.46 -9.61,-28.37zm-18.99 -1.27c0,31.54 22.46,56.97 50.64,56.97 19.53,0 30.53,-0.67 45.92,-16.12 30.51,-30.62 12.25,-96.56 -34.53,-96.56 -17.9,0 -34.47,0.98 -47.76,16.82 -7.53,8.98 -14.28,22.97 -14.28,38.89z"/>
   <path class="fil0" d="M814.1 84.84l-17.73 0 0 -37.98c15.91,0 37.98,-2.31 37.98,18.99 0,11.85 -8.74,18.99 -20.26,18.99zm-36.72 -49.38l0 107.62 18.99 0 0 -44.31c17.6,0 13.46,-0.23 22.43,11.75l20.8 29.84c4.57,4.51 11.48,2.72 22.6,2.72l-34.18 -48.11c24.12,-2.01 38.62,-47.12 4.93,-59.37 -13.12,-4.77 -36.34,-3.93 -51.77,-3.93 -2.92,0 -3.8,0.88 -3.8,3.8z"/>
   <path class="fil0" d="M917.92 51.92l2.4 5.19c0.89,2.49 1.3,4.05 2.29,6.57l14.3 37.61 -36.72 0c2.1,-9.01 14.51,-35.58 17.72,-49.38zm-53.18 91.16l17.73 0c4.69,-7 10.71,-19.59 11.39,-27.85l48.11 0c4.17,8.69 6.2,20.09 11.39,27.85l17.72 0 -10.66 -28.59c-3.77,-9.91 -7.31,-18.24 -11.22,-28.02l-17 -42.51c-5.58,-14.07 -2.72,-12.3 -19.36,-12.3 -4.97,0 -6.29,6.74 -7.96,11.03 -2.05,5.23 -3.94,9.86 -5.78,14.48l-34.37 85.91z"/>
   <path class="fil0" d="M482.38 35.46l0 107.62 70.9 0c0,-20.37 8.23,-15.19 -51.91,-15.19l0 -32.92 37.98 0c4.92,0 3.8,-3.25 3.8,-11.39 0,-2.92 -0.88,-3.8 -3.8,-3.8l-37.98 0 0 -31.65 48.11 0c5.05,0 3.8,-3.59 3.8,-12.66 0,-2.92 -0.88,-3.8 -3.8,-3.8l-63.3 0c-2.92,0 -3.8,0.88 -3.8,3.8z"/>
   <path class="fil0" d="M605.19 143.08l17.72 0c4.8,-9.08 43.87,-106.12 44.31,-111.42 -16.53,0 -17.99,-1.64 -22.99,11.19 -3.16,8.1 -6.59,17.2 -9.93,25.52 -3.38,8.43 -6.79,16.86 -10.14,25.31 -2.6,6.55 -8.33,20.31 -8.85,26.6 -0.92,-1.32 -0.08,0.38 -1.35,-2.45 -0.74,-1.66 -0.57,-1.34 -1.06,-2.74l-30.07 -77.55c-3.56,-7.3 -11.43,-5.89 -20.7,-5.89 0.21,9.4 42.36,103.22 43.05,111.42z"/>
   <path class="fil0" d="M977.42 84.84c0,17.53 2.79,30.48 13.01,42.7 18.96,22.67 60.91,23.09 80.68,0.35l-9.13 -9.87c-2.2,1.05 -3.86,1.66 -6.25,3.35 -2.71,1.92 -2.66,2.39 -6.1,4.03 -23.26,11.09 -53.22,-3.44 -53.22,-34.23 0,-17.98 3.82,-33.23 20.23,-40.54 19.39,-8.63 29.65,-0.74 43.07,6.36 3.78,-2.53 7.54,-6.43 8.86,-11.39 -8.87,-13.25 -27.4,-13.93 -43.05,-13.93 -26.15,0 -48.11,26.39 -48.11,53.18z"/>
   <path class="fil0" d="M672.29 35.46l0 12.66 34.18 0 0 94.96 18.99 0 0 -94.96 34.18 0 0 -16.46 -83.56 0c-2.92,0 -3.8,0.88 -3.8,3.8z"/>
   <path class="fil0" d="M1191.39 212.71l0 -3.8 -493.78 0c1.71,6.39 10.57,3.8 26.59,3.8l467.19 0z"/>
   <path class="fil0" d="M510.24 206.38c0,-8.83 1.9,-15.63 11.55,-16.08 15.89,-0.74 18.04,27.48 -0.15,27.48 -6.26,0 -11.39,-5.14 -11.39,-11.39zm-3.8 -5.06c0,9.73 2.82,20.26 15.19,20.26 20.11,0 24.94,-34.18 -1.27,-34.18 -7.4,0 -13.93,6.53 -13.93,13.93z"/>
   <path class="fil0" d="M455.79 202.58l-12.66 1.27 0 -13.93c8.15,0 9.02,0.51 13.93,3.8l-1.27 8.86zm-16.46 17.73l3.8 0 0 -13.93c0.95,0 2.78,-0.1 3.66,0.13 4.28,1.12 5.69,5.76 9.62,10.64 2.93,3.63 0.35,2.71 5.71,3.16l-8.86 -13.93c7.68,-4.06 7.6,-5.17 7.6,-13.93 -9.12,-6.11 -5.85,-5.06 -21.52,-5.06l0 32.92z"/>
   <path class="fil0" d="M363.37 201.32c0,7.37 0.69,15.34 9.37,18.49 8.52,3.09 10.37,1.13 18.49,-0.76 3.56,-15.27 0.76,-13.93 -8.86,-13.93l6.33 2.53 0 8.86c-30.42,7.09 -24.98,-26.59 -8.86,-26.59 3.49,0 8.52,4.18 10.13,2.53 0.62,-1.4 3.44,-0.01 -1.54,-3.33 -6.65,-4.44 -25.05,-1.37 -25.05,12.19z"/>
   <path class="fil0" d="M598.86 221.58c15.03,0 12.66,-22.34 12.66,-30.39 0,-3.5 -0.98,-3.04 -3.8,-3.8 0,20.1 2.29,19.4 -5.06,30.39l-8.86 0c-3.13,-4.68 -5.03,-4.34 -5.14,-12.59 -0.08,-5.86 0.07,-11.91 0.07,-17.8l-3.8 0c0,16.57 -2.85,34.18 13.93,34.18z"/>
   <path class="fil0" d="M668.5 205.12l-5.06 0 0 -15.19c7.24,0 13.93,0.52 13.93,7.6 0,4.84 -3.75,7.6 -8.86,7.6zm-8.86 15.19l3.8 0 0 -12.66c5.56,0 17.73,1.11 17.73,-8.86 0,-13.27 -12.74,-11.39 -21.52,-11.39l0 32.92z"/>
  </g>
 </g>
</svg>
