<svg width="1299" height="65" viewBox="0 0 1299 65" fill="none" xmlns="http://www.w3.org/2000/svg">
<path d="M50.6022 22.567C51.0836 25.1613 52.2841 27.5682 54.0667 29.5135C52.573 31.4524 50.4036 32.7574 47.9908 33.1686H37.3921V26.622H45.6291C45.6291 26.622 48.2145 26.622 50.5964 22.567" fill="white"/>
<path d="M71.8097 5.75671V12.6512H63.0184C63.0184 12.6512 60.6812 12.7277 58.6631 16.5243C58.2715 14.2779 57.2731 12.1813 55.776 10.4613C55.6316 10.2881 55.4743 10.1177 55.3198 9.95316C56.2711 8.46629 58.4062 6.02377 62.2663 5.75816L71.8097 5.75671Z" fill="white"/>
<path d="M44.2767 12.6425V19.4619H37.3721V5.65564C40.4036 5.8 43.4437 5.8 46.4377 6.1479C49.9484 6.55499 52.8298 8.34356 55.1222 11.0199C57.1432 13.3715 58.0757 16.1374 58.0006 19.2295C57.9299 22.0589 59.0111 24.2661 61.5402 25.5927C62.4584 26.0749 63.3519 26.2582 64.7695 26.3145V19.5962H71.8098C71.8273 19.899 71.8273 20.2027 71.8098 20.5056C71.8184 24.4032 71.7968 28.3008 71.83 32.1985C71.83 32.5854 71.83 33.2638 71.83 33.2638C71.83 33.2638 71.2237 33.2768 70.8123 33.2638C68.8201 33.2725 65.8724 33.2537 63.4198 33.0502C56.7346 32.493 51.8424 27.5502 51.2346 20.9011C51.0715 19.1241 50.9835 17.3269 49.9831 15.7433C48.6983 13.7107 46.8837 12.6743 44.2781 12.6382" fill="white"/>
<path d="M11.274 59.3017C11.0197 59.3046 10.767 59.262 10.5277 59.1761C10.309 59.0974 10.1086 58.9751 9.93869 58.8166C9.77146 58.6576 9.64091 58.464 9.55614 58.2493C9.46245 58.0083 9.41638 57.7514 9.42045 57.4929C9.41619 57.2373 9.45977 56.9832 9.54893 56.7437C9.62808 56.528 9.75151 56.3313 9.91127 56.1662C10.0728 56.0056 10.2667 55.8811 10.48 55.801C10.7178 55.7129 10.9699 55.6694 11.2235 55.6725C11.6575 55.6552 12.0825 55.7998 12.4158 56.0782C12.4007 56.0986 12.3868 56.1198 12.374 56.1417L12.3307 56.211C12.3236 56.2241 12.3128 56.2348 12.2998 56.242C12.2867 56.2491 12.2719 56.2524 12.2571 56.2514C12.2362 56.2487 12.216 56.2419 12.1979 56.2312C12.0549 56.1381 11.9013 56.0625 11.7403 56.006C11.5685 55.9519 11.3891 55.9261 11.209 55.9295C11.0047 55.9265 10.8017 55.9632 10.6114 56.0378C10.4384 56.1078 10.2831 56.2152 10.1567 56.3525C10.028 56.4953 9.92979 56.6627 9.86795 56.8447C9.7984 57.0516 9.76424 57.2688 9.76691 57.4871C9.76344 57.7123 9.79859 57.9364 9.87084 58.1497C9.93434 58.3336 10.0362 58.5019 10.1697 58.6434C10.303 58.7811 10.4652 58.8876 10.6446 58.9552C10.8444 59.0299 11.0564 59.0666 11.2697 59.0635C11.4315 59.0649 11.5927 59.0415 11.7475 58.9942C11.9002 58.9453 12.048 58.8825 12.1892 58.8065V57.8523H11.5858C11.5367 57.8523 11.5122 57.8292 11.5122 57.783V57.6387H12.4851V58.9379C12.132 59.1834 11.7097 59.3098 11.2798 59.2988" fill="white"/>
<path d="M17.7832 59.2569V55.7173H18.772C19.2051 55.7173 19.5111 55.8025 19.7118 55.9699C19.8117 56.0543 19.8909 56.1606 19.9432 56.2805C19.9955 56.4004 20.0196 56.5307 20.0135 56.6614C20.0142 56.7917 19.9871 56.9206 19.9341 57.0396C19.8826 57.1583 19.8097 57.2664 19.719 57.3586C19.6289 57.4511 19.5228 57.5264 19.4058 57.5809C19.2896 57.6367 19.1635 57.6686 19.0348 57.6748C19.0565 57.6974 19.0813 57.7168 19.1084 57.7325C19.1831 57.7943 19.2483 57.8667 19.3018 57.9476L20.2603 59.2627H19.9832C19.957 59.2633 19.9311 59.2573 19.9078 59.2452C19.8846 59.2331 19.8648 59.2153 19.8504 59.1934L18.8125 57.7845C18.7913 57.754 18.7593 57.7328 18.7229 57.7253C18.6757 57.7139 18.6272 57.7086 18.5786 57.7094H18.1138V59.2569H17.7832ZM18.1152 55.9367V57.5246H18.7229C18.9834 57.544 19.2415 57.4635 19.4447 57.2994C19.5256 57.2233 19.5891 57.1306 19.6309 57.0278C19.6728 56.9249 19.692 56.8142 19.6873 56.7032C19.6873 56.199 19.3726 55.9473 18.7432 55.9483L18.1152 55.9367Z" fill="white"/>
<path d="M26.7437 59.3017C26.4964 59.3059 26.2508 59.2597 26.0219 59.166C25.8152 59.0801 25.6292 58.9512 25.4763 58.7878C25.323 58.6207 25.2051 58.4242 25.1298 58.2103C24.9694 57.7425 24.9694 57.2346 25.1298 56.7668C25.2055 56.553 25.3233 56.3567 25.4763 56.1893C25.6292 56.0259 25.8152 55.897 26.0219 55.8111C26.4858 55.6284 27.0017 55.6284 27.4655 55.8111C27.6735 55.897 27.8608 56.0261 28.0151 56.1899C28.1694 56.3536 28.2871 56.5483 28.3605 56.761C28.5222 57.2316 28.5222 57.7427 28.3605 58.2132C28.2875 58.4266 28.1695 58.6217 28.0146 58.7856C27.8597 58.9495 27.6715 59.0782 27.4626 59.1631C27.2338 59.2572 26.9882 59.3034 26.7408 59.2988M26.7408 59.0375C26.9385 59.0406 27.1348 59.0042 27.3182 58.9307C27.4837 58.8625 27.6318 58.7579 27.7513 58.6246C27.8759 58.4825 27.9702 58.3165 28.0285 58.1367C28.1574 57.7132 28.1574 57.261 28.0285 56.8375C27.9702 56.6573 27.8759 56.4908 27.7513 56.3481C27.6327 56.2132 27.4845 56.1075 27.3182 56.0392C26.9509 55.8968 26.5437 55.8968 26.1764 56.0392C26.0102 56.1075 25.8619 56.2132 25.7433 56.3481C25.6182 56.4907 25.5234 56.6572 25.4647 56.8375C25.3317 57.2604 25.3317 57.7139 25.4647 58.1367C25.5235 58.3166 25.6183 58.4826 25.7433 58.6246C25.8629 58.7579 26.0109 58.8625 26.1764 58.9307C26.3571 59.0034 26.5504 59.0397 26.7451 59.0375" fill="white"/>
<path d="M35.0163 59.306C34.8185 59.3089 34.6222 59.2721 34.4389 59.1977C34.2749 59.131 34.1269 59.0302 34.0047 58.9021C33.8825 58.7739 33.7889 58.6213 33.7301 58.4543C33.6643 58.2745 33.6315 58.0842 33.6334 57.8927V55.7173H33.9611V57.8826C33.9596 58.0395 33.984 58.1956 34.0332 58.3446C34.0774 58.4786 34.1481 58.6023 34.2411 58.7084C34.3328 58.8111 34.4455 58.8929 34.5717 58.948C34.7118 59.0073 34.8628 59.0363 35.0149 59.0332C35.1663 59.0359 35.3167 59.0074 35.4566 58.9494C35.583 58.8968 35.6957 58.8158 35.7857 58.7127C35.8768 58.6057 35.9464 58.4822 35.9907 58.3489C36.04 58.1999 36.0644 58.0439 36.0629 57.887V55.7173H36.3935V57.8927C36.3954 58.0842 36.3626 58.2745 36.2968 58.4543C36.2379 58.6211 36.1445 58.7735 36.0226 58.9016C35.9007 59.0298 35.7531 59.1307 35.5894 59.1977C35.4063 59.2728 35.2098 59.3097 35.012 59.306" fill="white"/>
<path d="M42.0453 59.2569H41.7147V55.7188H42.7252C42.9205 55.7143 43.1153 55.7401 43.3026 55.7953C43.4499 55.8386 43.5869 55.9113 43.7054 56.0089C43.811 56.099 43.8924 56.2142 43.9422 56.3438C43.9952 56.482 44.0211 56.629 44.0187 56.7769C44.0207 56.9287 43.9922 57.0795 43.9349 57.2201C43.8794 57.352 43.7951 57.4699 43.6881 57.5651C43.57 57.6682 43.4319 57.7459 43.2824 57.7932C43.1033 57.8502 42.9161 57.8775 42.7281 57.874H42.0453V59.2569ZM42.7223 57.6401C42.8513 57.6488 42.9808 57.6319 43.1032 57.5902C43.2256 57.5486 43.3385 57.4831 43.4355 57.3976C43.5177 57.3157 43.5821 57.2175 43.6246 57.1095C43.6671 57.0014 43.6867 56.8857 43.6823 56.7697C43.6883 56.6565 43.67 56.5433 43.6287 56.4377C43.5874 56.3322 43.5239 56.2367 43.4427 56.1576C43.2392 55.9943 42.981 55.9148 42.7209 55.9353H42.0453V57.6401H42.7223Z" fill="white"/>
<path d="M20.0152 44.8098C20.0264 45.6478 19.8794 46.4803 19.5822 47.2639C19.312 47.9792 18.8933 48.6292 18.3536 49.1709C17.8139 49.7126 17.1654 50.1338 16.4511 50.4065C15.6635 50.7083 14.8259 50.8577 13.9826 50.8468H9.4209V38.7757H13.9797C14.8226 38.7617 15.6604 38.9087 16.4482 39.2088C17.1626 39.4815 17.811 39.9026 18.3507 40.4443C18.8904 40.986 19.3092 41.636 19.5793 42.3514C19.8766 43.1349 20.0236 43.9675 20.0123 44.8055M18.0087 44.8055C18.0175 44.1717 17.9229 43.5408 17.7286 42.9375C17.5617 42.4192 17.2872 41.9421 16.9231 41.5372C16.5703 41.1547 16.1369 40.8554 15.6542 40.661C15.1204 40.4505 14.5506 40.3465 13.9768 40.355H11.387V49.2574H13.9768C14.5502 49.2658 15.1197 49.1634 15.6542 48.9557C16.1376 48.7627 16.5713 48.4632 16.9231 48.0795C17.2857 47.6736 17.56 47.1967 17.7286 46.6792C17.9238 46.0732 18.0184 45.4392 18.0087 44.8026" fill="white"/>
<path d="M30.0408 49.2618L30.0321 50.8454H22.5054V38.7758H30.0321V40.3593H24.4744V43.9971H28.9177V45.5316H24.4744V49.2618H30.0408Z" fill="white"/>
<path d="M42.5948 38.7756L37.6996 50.8452H35.9313L31.0361 38.7756H32.6038C32.7543 38.7682 32.9026 38.8142 33.0225 38.9055C33.1287 38.9914 33.2125 39.1019 33.2664 39.2274L36.3759 47.0992C36.5605 47.5974 36.7143 48.1065 36.8364 48.6236C36.8985 48.3349 36.9634 48.0678 37.0342 47.8109C37.0982 47.5698 37.1748 47.3322 37.2637 47.0992L40.3659 39.2274C40.4177 39.1066 40.4979 39.0001 40.5998 38.9171C40.7177 38.8197 40.867 38.7684 41.0198 38.7727L42.5948 38.7756Z" fill="white"/>
<path d="M52.6449 40.4099H48.8815V50.8454H46.9284V40.4099H43.1564V38.7758H52.6449V40.4099Z" fill="white"/>
<path d="M63.843 50.8453H62.0919C61.941 50.8556 61.7902 50.8232 61.6568 50.752C61.5233 50.6808 61.4125 50.5736 61.3369 50.4426L58.5205 46.3775C58.4423 46.2538 58.336 46.1505 58.2102 46.0758C58.0525 46.0053 57.8802 45.9736 57.7078 45.9834H56.6251V50.8453H54.6633V38.7757H58.2131C58.9042 38.7631 59.5938 38.8446 60.2629 39.0182C60.7757 39.1502 61.2561 39.3855 61.6747 39.7097C62.0334 39.9941 62.3145 40.3645 62.4918 40.7866C62.8155 41.6096 62.8426 42.5197 62.5683 43.3604C62.4453 43.7193 62.2606 44.0539 62.0226 44.3493C61.7759 44.6536 61.4797 44.9142 61.1464 45.1202C60.7798 45.3471 60.382 45.5193 59.9655 45.6312C60.2152 45.7868 60.4272 45.9958 60.5863 46.2432L63.843 50.8453ZM58.1596 44.5586C58.5569 44.5656 58.9529 44.5105 59.3333 44.3955C59.6411 44.3017 59.9265 44.146 60.172 43.9379C60.392 43.7477 60.5641 43.5083 60.6743 43.2392C60.7894 42.9525 60.8463 42.6458 60.8418 42.337C60.8418 41.6787 60.6243 41.1759 60.1893 40.8284C59.7543 40.481 59.0946 40.3078 58.2102 40.3087H56.6222V44.5586H58.1596Z" fill="white"/>
<path d="M75.7368 50.8452H74.2196C74.0691 50.8525 73.9209 50.8065 73.801 50.7153C73.6944 50.6294 73.611 50.5183 73.5585 50.3919L72.548 47.7271H67.3512L66.3407 50.3919C66.2897 50.5132 66.2093 50.6198 66.1068 50.7023C65.9891 50.8 65.8397 50.8513 65.6867 50.8466H64.1696L68.9564 38.777H70.9428L75.7368 50.8452ZM72.024 46.3196L70.3639 41.9095C70.2039 41.4842 70.067 41.0505 69.9539 40.6103C69.8923 40.873 69.8254 41.1136 69.7533 41.3321C69.6796 41.553 69.6089 41.7464 69.5512 41.9095L67.8853 46.3196H72.024Z" fill="white"/>
<path d="M85.5266 48.1547C85.5791 48.1545 85.631 48.1657 85.6788 48.1874C85.7266 48.209 85.7692 48.2407 85.8037 48.2803L86.5833 49.1276C86.0938 49.7179 85.4742 50.1868 84.7731 50.4976C83.9617 50.8379 83.0874 51.0022 82.2078 50.9797C81.3872 50.9916 80.5728 50.8359 79.8144 50.5221C79.1232 50.2319 78.5017 49.7978 77.9912 49.2489C77.4787 48.6838 77.0859 48.0209 76.8363 47.3001C76.5579 46.4998 76.4206 45.6572 76.4307 44.8099C76.4212 43.9594 76.568 43.1144 76.8638 42.3169C77.1318 41.5902 77.5449 40.9257 78.0778 40.3637C78.6079 39.814 79.2471 39.3813 79.9545 39.0934C80.7203 38.785 81.5397 38.6314 82.3652 38.6416C83.1557 38.6265 83.9411 38.7703 84.6749 39.0645C85.3159 39.3322 85.9029 39.7142 86.4072 40.192L85.7619 41.1057C85.7176 41.1666 85.664 41.2202 85.6031 41.2645C85.5282 41.3133 85.4397 41.337 85.3505 41.3324C85.2103 41.3212 85.0772 41.2668 84.9694 41.1765C84.7941 41.0526 84.6124 40.9379 84.4252 40.8329C83.7913 40.4828 83.0745 40.3108 82.3508 40.3349C81.8065 40.3275 81.2664 40.4301 80.7628 40.6366C80.2887 40.8328 79.8649 41.1332 79.5228 41.5157C79.1621 41.927 78.8868 42.4059 78.713 42.9246C78.5122 43.5325 78.4146 44.1698 78.4243 44.8099C78.414 45.4554 78.5161 46.0977 78.726 46.7082C78.9059 47.2286 79.1881 47.7076 79.556 48.1171C79.9016 48.4949 80.3245 48.7938 80.796 48.9934C81.282 49.1964 81.8039 49.299 82.3306 49.2951C82.6317 49.297 82.9326 49.2786 83.2313 49.2402C83.4813 49.2076 83.7271 49.1486 83.9646 49.0641C84.1858 48.9842 84.3982 48.8816 84.5984 48.7581C84.8087 48.6259 85.0063 48.4747 85.1888 48.3062C85.2785 48.218 85.398 48.1665 85.5237 48.1619" fill="white"/>
<path d="M99.7172 44.8098C99.7276 45.6538 99.5808 46.4924 99.2841 47.2826C99.0122 48.0091 98.5946 48.6722 98.0571 49.2314C97.5178 49.7844 96.8701 50.2198 96.1545 50.5104C94.5691 51.1244 92.8115 51.1244 91.2261 50.5104C90.507 50.2205 89.8563 49.7836 89.3157 49.2278C88.775 48.672 88.3563 48.0095 88.0864 47.2826C87.5051 45.6853 87.5051 43.9343 88.0864 42.337C88.3602 41.6093 88.7797 40.9452 89.3192 40.3853C89.8593 39.8303 90.5086 39.3933 91.2261 39.1019C92.8115 38.488 94.5691 38.488 96.1545 39.1019C96.8709 39.393 97.5188 39.8301 98.0571 40.3853C98.5938 40.9462 99.0112 41.6102 99.2841 42.337C99.5806 43.1273 99.7274 43.9658 99.7172 44.8098ZM97.7149 44.8098C97.724 44.1759 97.6289 43.5449 97.4335 42.9418C97.2657 42.4216 96.992 41.9419 96.6294 41.5329C96.2777 41.1457 95.8436 40.8423 95.3591 40.6451C94.2825 40.2313 93.0908 40.2313 92.0143 40.6451C91.5295 40.8433 91.0947 41.1465 90.7411 41.5329C90.3753 41.941 90.0985 42.4208 89.9284 42.9418C89.5472 44.1614 89.5472 45.4683 89.9284 46.6879C90.0982 47.2077 90.3751 47.6862 90.7411 48.0925C91.0951 48.4763 91.53 48.7765 92.0143 48.9716C93.0919 49.3797 94.2815 49.3797 95.3591 48.9716C95.8431 48.7776 96.2773 48.4771 96.6294 48.0925C96.9922 47.6853 97.266 47.2069 97.4335 46.6879C97.6292 46.0819 97.7242 45.448 97.7149 44.8112" fill="white"/>
<path d="M99.7819 58.0258H45.9701V58.3145H99.7819V58.0258Z" fill="white"/>
<g clip-path="url(#clip0_359_8651)">
<path fill-rule="evenodd" clip-rule="evenodd" d="M1250.2 19.7308C1250.2 19.1341 1250.44 18.5618 1250.86 18.1398C1251.28 17.7179 1251.86 17.4808 1252.45 17.4808H1295.95C1296.55 17.4808 1297.12 17.7179 1297.54 18.1398C1297.97 18.5618 1298.2 19.1341 1298.2 19.7308C1298.2 20.3276 1297.97 20.8999 1297.54 21.3218C1297.12 21.7438 1296.55 21.9808 1295.95 21.9808H1252.45C1251.86 21.9808 1251.28 21.7438 1250.86 21.3218C1250.44 20.8999 1250.2 20.3276 1250.2 19.7308ZM1250.2 32.4808C1250.2 31.8841 1250.44 31.3118 1250.86 30.8898C1251.28 30.4679 1251.86 30.2308 1252.45 30.2308H1295.95C1296.55 30.2308 1297.12 30.4679 1297.54 30.8898C1297.97 31.3118 1298.2 31.8841 1298.2 32.4808C1298.2 33.0776 1297.97 33.6499 1297.54 34.0718C1297.12 34.4938 1296.55 34.7308 1295.95 34.7308H1252.45C1251.86 34.7308 1251.28 34.4938 1250.86 34.0718C1250.44 33.6499 1250.2 33.0776 1250.2 32.4808ZM1252.45 42.9808C1251.86 42.9808 1251.28 43.2179 1250.86 43.6398C1250.44 44.0618 1250.2 44.6341 1250.2 45.2308C1250.2 45.8276 1250.44 46.3999 1250.86 46.8218C1251.28 47.2438 1251.86 47.4808 1252.45 47.4808H1295.95C1296.55 47.4808 1297.12 47.2438 1297.54 46.8218C1297.97 46.3999 1298.2 45.8276 1298.2 45.2308C1298.2 44.6341 1297.97 44.0618 1297.54 43.6398C1297.12 43.2179 1296.55 42.9808 1295.95 42.9808H1252.45Z" fill="white"/>
</g>
<defs>
<clipPath id="clip0_359_8651">
<rect width="48" height="48" fill="white" transform="translate(1250.2 8.48083)"/>
</clipPath>
</defs>
</svg>
